<?xml version="1.0" encoding="UTF-8" standalone="no"?>
<!DOCTYPE svg PUBLIC "-//W3C//DTD SVG 1.1//EN"
 "http://www.w3.org/Graphics/SVG/1.1/DTD/svg11.dtd">
<!-- Generated by graphviz version 10.0.1 (0)
 -->
<!-- Pages: 1 -->
<svg width="1789pt" height="692pt"
 viewBox="0.00 0.00 1788.94 692.00" xmlns="http://www.w3.org/2000/svg" xmlns:xlink="http://www.w3.org/1999/xlink">
<g id="graph0" class="graph" transform="scale(1 1) rotate(0) translate(4 688)">
<polygon fill="white" stroke="none" points="-4,4 -4,-688 1784.94,-688 1784.94,4 -4,4"/>
<!-- 0 -->
<g id="node1" class="node">
<title>0</title>
<polygon fill="none" stroke="black" points="1023.38,-108 928.62,-108 928.62,-72 1023.38,-72 1023.38,-108"/>
<text text-anchor="middle" x="976" y="-85.33" font-family="Times,serif" font-size="14.00">linera&#45;base</text>
</g>
<!-- 1 -->
<g id="node2" class="node">
<title>1</title>
<polygon fill="none" stroke="black" points="487.25,-36 388.75,-36 388.75,0 487.25,0 487.25,-36"/>
<text text-anchor="middle" x="438" y="-13.32" font-family="Times,serif" font-size="14.00">linera&#45;witty</text>
</g>
<!-- 0&#45;&gt;1 -->
<g id="edge1" class="edge">
<title>0&#45;&gt;1</title>
<path fill="none" stroke="black" d="M928.26,-82.79C830.37,-70.05 607.07,-41 498.93,-26.93"/>
<polygon fill="black" stroke="black" points="499.45,-23.47 489.08,-25.65 498.55,-30.41 499.45,-23.47"/>
</g>
<!-- 2 -->
<g id="node3" class="node">
<title>2</title>
<polygon fill="none" stroke="black" points="604,-324 504,-324 504,-288 604,-288 604,-324"/>
<text text-anchor="middle" x="554" y="-301.32" font-family="Times,serif" font-size="14.00">linera&#45;chain</text>
</g>
<!-- 2&#45;&gt;0 -->
<g id="edge2" class="edge">
<title>2&#45;&gt;0</title>
<path fill="none" stroke="black" d="M588.18,-287.67C664.09,-249.17 846.7,-156.57 931.43,-113.6"/>
<polygon fill="black" stroke="black" points="932.82,-116.82 940.15,-109.18 929.65,-110.58 932.82,-116.82"/>
</g>
<!-- 3 -->
<g id="node4" class="node">
<title>3</title>
<polygon fill="none" stroke="black" points="389.38,-252 258.62,-252 258.62,-216 389.38,-216 389.38,-252"/>
<text text-anchor="middle" x="324" y="-229.32" font-family="Times,serif" font-size="14.00">linera&#45;execution</text>
</g>
<!-- 2&#45;&gt;3 -->
<g id="edge3" class="edge">
<title>2&#45;&gt;3</title>
<path fill="none" stroke="black" d="M503.53,-289.64C470.81,-279.68 427.79,-266.59 392.07,-255.72"/>
<polygon fill="black" stroke="black" points="393.27,-252.42 382.68,-252.86 391.23,-259.12 393.27,-252.42"/>
</g>
<!-- 4 -->
<g id="node5" class="node">
<title>4</title>
<polygon fill="none" stroke="black" points="489.12,-180 386.88,-180 386.88,-144 489.12,-144 489.12,-180"/>
<text text-anchor="middle" x="438" y="-157.32" font-family="Times,serif" font-size="14.00">linera&#45;views</text>
</g>
<!-- 2&#45;&gt;4 -->
<g id="edge4" class="edge">
<title>2&#45;&gt;4</title>
<path fill="none" stroke="black" d="M539.78,-287.59C519.58,-262.86 482.44,-217.41 459.05,-188.77"/>
<polygon fill="black" stroke="black" points="461.97,-186.81 452.94,-181.28 456.55,-191.24 461.97,-186.81"/>
</g>
<!-- 3&#45;&gt;0 -->
<g id="edge5" class="edge">
<title>3&#45;&gt;0</title>
<path fill="none" stroke="black" d="M329.1,-215.85C336.31,-194.96 351.61,-160.43 378,-144 423.07,-115.94 775.28,-98.97 917.11,-93.21"/>
<polygon fill="black" stroke="black" points="917.2,-96.71 927.05,-92.82 916.92,-89.72 917.2,-96.71"/>
</g>
<!-- 3&#45;&gt;1 -->
<g id="edge7" class="edge">
<title>3&#45;&gt;1</title>
<path fill="none" stroke="black" d="M325.45,-215.56C327.5,-197.09 332.26,-167.41 343,-144 360.51,-105.83 391.36,-68.32 413.14,-44.51"/>
<polygon fill="black" stroke="black" points="415.43,-47.19 419.69,-37.49 410.31,-42.42 415.43,-47.19"/>
</g>
<!-- 3&#45;&gt;4 -->
<g id="edge6" class="edge">
<title>3&#45;&gt;4</title>
<path fill="none" stroke="black" d="M352.47,-215.52C367,-206.6 384.86,-195.63 400.49,-186.03"/>
<polygon fill="black" stroke="black" points="401.91,-189.27 408.6,-181.05 398.25,-183.3 401.91,-189.27"/>
</g>
<!-- 4&#45;&gt;0 -->
<g id="edge8" class="edge">
<title>4&#45;&gt;0</title>
<path fill="none" stroke="black" d="M489.29,-146.85C493.91,-145.8 498.53,-144.83 503,-144 650.68,-116.56 827.13,-101.37 917.02,-94.86"/>
<polygon fill="black" stroke="black" points="917.1,-98.37 926.83,-94.16 916.6,-91.38 917.1,-98.37"/>
</g>
<!-- 4&#45;&gt;1 -->
<g id="edge9" class="edge">
<title>4&#45;&gt;1</title>
<path fill="none" stroke="black" d="M438,-143.59C438,-119.61 438,-76.14 438,-47.42"/>
<polygon fill="black" stroke="black" points="441.5,-47.62 438,-37.62 434.5,-47.62 441.5,-47.62"/>
</g>
<!-- 5 -->
<g id="node6" class="node">
<title>5</title>
<polygon fill="none" stroke="black" points="335.75,-612 234.25,-612 234.25,-576 335.75,-576 335.75,-612"/>
<text text-anchor="middle" x="285" y="-589.33" font-family="Times,serif" font-size="14.00">linera&#45;client</text>
</g>
<!-- 5&#45;&gt;0 -->
<g id="edge10" class="edge">
<title>5&#45;&gt;0</title>
<path fill="none" stroke="black" d="M252.71,-575.61C185.76,-536.95 38,-436.9 38,-307 38,-307 38,-307 38,-233 38,-128.76 153.53,-167.9 255,-144 380.47,-114.45 768.74,-98.2 917.33,-92.93"/>
<polygon fill="black" stroke="black" points="917.07,-96.44 926.94,-92.59 916.82,-89.45 917.07,-96.44"/>
</g>
<!-- 5&#45;&gt;2 -->
<g id="edge11" class="edge">
<title>5&#45;&gt;2</title>
<path fill="none" stroke="black" d="M289.14,-575.77C294.05,-557.21 303.34,-527.21 317,-504 364.27,-423.69 456.91,-361.48 511.31,-329.91"/>
<polygon fill="black" stroke="black" points="512.75,-333.12 519.69,-325.12 509.27,-327.04 512.75,-333.12"/>
</g>
<!-- 5&#45;&gt;3 -->
<g id="edge13" class="edge">
<title>5&#45;&gt;3</title>
<path fill="none" stroke="black" d="M270.67,-575.7C244.68,-543.06 190.62,-469.08 171,-396 166.85,-380.55 164.14,-374.46 171,-360 192.97,-313.68 241.43,-278.84 277.97,-257.87"/>
<polygon fill="black" stroke="black" points="279.57,-260.98 286.6,-253.06 276.16,-254.87 279.57,-260.98"/>
</g>
<!-- 5&#45;&gt;4 -->
<g id="edge17" class="edge">
<title>5&#45;&gt;4</title>
<path fill="none" stroke="black" d="M234.62,-575.68C184.18,-554.76 114,-514.29 114,-451 114,-451 114,-451 114,-305 114,-240.37 170.9,-244.31 229,-216 275.49,-193.34 332.67,-179.7 375.46,-171.95"/>
<polygon fill="black" stroke="black" points="375.83,-175.44 385.08,-170.27 374.63,-168.54 375.83,-175.44"/>
</g>
<!-- 6 -->
<g id="node7" class="node">
<title>6</title>
<polygon fill="none" stroke="black" points="481.25,-468 388.75,-468 388.75,-432 481.25,-432 481.25,-468"/>
<text text-anchor="middle" x="435" y="-445.32" font-family="Times,serif" font-size="14.00">linera&#45;core</text>
</g>
<!-- 5&#45;&gt;6 -->
<g id="edge12" class="edge">
<title>5&#45;&gt;6</title>
<path fill="none" stroke="black" d="M294.83,-575.75C306.31,-556.62 326.73,-525.62 350,-504 362.1,-492.76 376.91,-482.57 390.77,-474.19"/>
<polygon fill="black" stroke="black" points="392.46,-477.25 399.33,-469.18 388.93,-471.21 392.46,-477.25"/>
</g>
<!-- 7 -->
<g id="node8" class="node">
<title>7</title>
<polygon fill="none" stroke="black" points="295.88,-396 180.12,-396 180.12,-360 295.88,-360 295.88,-396"/>
<text text-anchor="middle" x="238" y="-373.32" font-family="Times,serif" font-size="14.00">linera&#45;storage</text>
</g>
<!-- 5&#45;&gt;7 -->
<g id="edge15" class="edge">
<title>5&#45;&gt;7</title>
<path fill="none" stroke="black" d="M280.22,-575.88C277.39,-565.52 273.82,-552.05 271,-540 260.2,-493.94 249.55,-440 243.38,-407.71"/>
<polygon fill="black" stroke="black" points="246.83,-407.12 241.53,-397.95 239.95,-408.43 246.83,-407.12"/>
</g>
<!-- 8 -->
<g id="node9" class="node">
<title>8</title>
<polygon fill="none" stroke="black" points="732.12,-396 617.88,-396 617.88,-360 732.12,-360 732.12,-396"/>
<text text-anchor="middle" x="675" y="-373.32" font-family="Times,serif" font-size="14.00">linera&#45;version</text>
</g>
<!-- 5&#45;&gt;8 -->
<g id="edge16" class="edge">
<title>5&#45;&gt;8</title>
<path fill="none" stroke="black" d="M336.12,-584.94C405.44,-571.64 529.67,-539.16 609,-468 629.15,-449.93 647.09,-424.83 659.16,-405.9"/>
<polygon fill="black" stroke="black" points="661.98,-407.99 664.28,-397.65 656.03,-404.3 661.98,-407.99"/>
</g>
<!-- 10 -->
<g id="node11" class="node">
<title>10</title>
<polygon fill="none" stroke="black" points="477.5,-540 392.5,-540 392.5,-504 477.5,-504 477.5,-540"/>
<text text-anchor="middle" x="435" y="-517.33" font-family="Times,serif" font-size="14.00">linera&#45;rpc</text>
</g>
<!-- 5&#45;&gt;10 -->
<g id="edge14" class="edge">
<title>5&#45;&gt;10</title>
<path fill="none" stroke="black" d="M322.46,-575.52C342.14,-566.34 366.45,-554.99 387.44,-545.2"/>
<polygon fill="black" stroke="black" points="388.8,-548.42 396.38,-541.02 385.84,-542.08 388.8,-548.42"/>
</g>
<!-- 6&#45;&gt;0 -->
<g id="edge18" class="edge">
<title>6&#45;&gt;0</title>
<path fill="none" stroke="black" d="M439.69,-431.58C449.94,-394.6 475,-309.82 495,-288 609.93,-162.62 816.37,-115.07 917.26,-98.72"/>
<polygon fill="black" stroke="black" points="917.62,-102.2 926.95,-97.2 916.53,-95.29 917.62,-102.2"/>
</g>
<!-- 6&#45;&gt;2 -->
<g id="edge19" class="edge">
<title>6&#45;&gt;2</title>
<path fill="none" stroke="black" d="M454.68,-431.65C465.57,-421.67 479.06,-408.63 490,-396 507.13,-376.21 524.33,-352 536.58,-333.83"/>
<polygon fill="black" stroke="black" points="539.37,-335.94 542,-325.68 533.54,-332.06 539.37,-335.94"/>
</g>
<!-- 6&#45;&gt;3 -->
<g id="edge20" class="edge">
<title>6&#45;&gt;3</title>
<path fill="none" stroke="black" d="M415.9,-431.78C405.97,-422.04 394.21,-409.19 386,-396 359.23,-353.01 340.78,-296.58 331.33,-263.22"/>
<polygon fill="black" stroke="black" points="334.8,-262.61 328.77,-253.9 328.05,-264.47 334.8,-262.61"/>
</g>
<!-- 6&#45;&gt;4 -->
<g id="edge23" class="edge">
<title>6&#45;&gt;4</title>
<path fill="none" stroke="black" d="M435.18,-431.54C435.68,-383.76 437.08,-250.51 437.7,-191.61"/>
<polygon fill="black" stroke="black" points="441.2,-191.78 437.8,-181.74 434.2,-191.71 441.2,-191.78"/>
</g>
<!-- 6&#45;&gt;7 -->
<g id="edge21" class="edge">
<title>6&#45;&gt;7</title>
<path fill="none" stroke="black" d="M388.31,-432.41C361.27,-422.8 326.95,-410.61 297.94,-400.3"/>
<polygon fill="black" stroke="black" points="299.12,-397 288.53,-396.95 296.78,-403.6 299.12,-397"/>
</g>
<!-- 6&#45;&gt;8 -->
<g id="edge22" class="edge">
<title>6&#45;&gt;8</title>
<path fill="none" stroke="black" d="M481.56,-435.42C517.07,-425.06 566.52,-410.64 606.54,-398.97"/>
<polygon fill="black" stroke="black" points="607.48,-402.34 616.1,-396.18 605.52,-395.62 607.48,-402.34"/>
</g>
<!-- 7&#45;&gt;0 -->
<g id="edge24" class="edge">
<title>7&#45;&gt;0</title>
<path fill="none" stroke="black" d="M231.19,-359.97C219.93,-328.84 201.27,-261.72 229,-216 260.08,-164.77 286.18,-163.05 343,-144 448.41,-108.67 780.43,-96.11 916.72,-92.38"/>
<polygon fill="black" stroke="black" points="916.71,-95.88 926.62,-92.11 916.53,-88.88 916.71,-95.88"/>
</g>
<!-- 7&#45;&gt;2 -->
<g id="edge25" class="edge">
<title>7&#45;&gt;2</title>
<path fill="none" stroke="black" d="M296.33,-364.08C352.08,-351.73 435.83,-333.18 492.59,-320.6"/>
<polygon fill="black" stroke="black" points="493.08,-324.08 502.09,-318.5 491.57,-317.24 493.08,-324.08"/>
</g>
<!-- 7&#45;&gt;3 -->
<g id="edge26" class="edge">
<title>7&#45;&gt;3</title>
<path fill="none" stroke="black" d="M248.55,-359.59C263.33,-335.18 290.34,-290.58 307.71,-261.89"/>
<polygon fill="black" stroke="black" points="310.67,-263.77 312.85,-253.41 304.68,-260.15 310.67,-263.77"/>
</g>
<!-- 7&#45;&gt;4 -->
<g id="edge27" class="edge">
<title>7&#45;&gt;4</title>
<path fill="none" stroke="black" d="M233.49,-359.66C226.22,-327.4 215.94,-257.67 250,-216 265.99,-196.43 327.09,-181.68 375.35,-172.78"/>
<polygon fill="black" stroke="black" points="375.97,-176.22 385.19,-171.01 374.73,-169.33 375.97,-176.22"/>
</g>
<!-- 9 -->
<g id="node10" class="node">
<title>9</title>
<polygon fill="none" stroke="black" points="1061.62,-468 890.38,-468 890.38,-432 1061.62,-432 1061.62,-468"/>
<text text-anchor="middle" x="976" y="-445.32" font-family="Times,serif" font-size="14.00">linera&#45;storage&#45;service</text>
</g>
<!-- 9&#45;&gt;0 -->
<g id="edge28" class="edge">
<title>9&#45;&gt;0</title>
<path fill="none" stroke="black" d="M976,-431.51C976,-404.71 976,-351.87 976,-307 976,-307 976,-307 976,-233 976,-193.74 976,-148.38 976,-119.69"/>
<polygon fill="black" stroke="black" points="979.5,-120 976,-110 972.5,-120 979.5,-120"/>
</g>
<!-- 9&#45;&gt;4 -->
<g id="edge30" class="edge">
<title>9&#45;&gt;4</title>
<path fill="none" stroke="black" d="M965.82,-431.65C945.64,-398.75 897.33,-327.09 838,-288 731.66,-217.95 583.77,-185.26 500.84,-171.58"/>
<polygon fill="black" stroke="black" points="501.5,-168.14 491.07,-170.02 500.39,-175.06 501.5,-168.14"/>
</g>
<!-- 9&#45;&gt;8 -->
<g id="edge29" class="edge">
<title>9&#45;&gt;8</title>
<path fill="none" stroke="black" d="M900.82,-431.52C852.46,-420.27 790.12,-405.77 743.19,-394.86"/>
<polygon fill="black" stroke="black" points="744.23,-391.51 733.69,-392.65 742.64,-398.32 744.23,-391.51"/>
</g>
<!-- 10&#45;&gt;0 -->
<g id="edge31" class="edge">
<title>10&#45;&gt;0</title>
<path fill="none" stroke="black" d="M465.25,-503.65C480.83,-494.07 499.72,-481.4 515,-468 562.85,-426.05 562.16,-403.07 609,-360 638.88,-332.52 857.44,-175.7 942.37,-115"/>
<polygon fill="black" stroke="black" points="944.25,-117.96 950.35,-109.3 940.18,-112.27 944.25,-117.96"/>
</g>
<!-- 10&#45;&gt;2 -->
<g id="edge32" class="edge">
<title>10&#45;&gt;2</title>
<path fill="none" stroke="black" d="M457.02,-503.68C468.07,-494.1 480.98,-481.43 490,-468 518.49,-425.55 537.36,-368.5 546.83,-334.95"/>
<polygon fill="black" stroke="black" points="550.13,-336.15 549.38,-325.58 543.37,-334.31 550.13,-336.15"/>
</g>
<!-- 10&#45;&gt;3 -->
<g id="edge34" class="edge">
<title>10&#45;&gt;3</title>
<path fill="none" stroke="black" d="M411.9,-503.55C400.83,-494.11 388.23,-481.62 380,-468 340.18,-402.15 328.67,-309.82 325.34,-263.65"/>
<polygon fill="black" stroke="black" points="328.86,-263.7 324.73,-253.94 321.87,-264.14 328.86,-263.7"/>
</g>
<!-- 10&#45;&gt;6 -->
<g id="edge33" class="edge">
<title>10&#45;&gt;6</title>
<path fill="none" stroke="black" d="M435,-503.7C435,-496.41 435,-487.73 435,-479.54"/>
<polygon fill="black" stroke="black" points="438.5,-479.62 435,-469.62 431.5,-479.62 438.5,-479.62"/>
</g>
<!-- 10&#45;&gt;7 -->
<g id="edge35" class="edge">
<title>10&#45;&gt;7</title>
<path fill="none" stroke="black" d="M403.77,-503.65C386.64,-493.77 365.23,-480.83 347,-468 318.33,-447.82 287.56,-422.3 266.04,-403.76"/>
<polygon fill="black" stroke="black" points="268.41,-401.19 258.56,-397.28 263.82,-406.47 268.41,-401.19"/>
</g>
<!-- 10&#45;&gt;8 -->
<g id="edge36" class="edge">
<title>10&#45;&gt;8</title>
<path fill="none" stroke="black" d="M477.8,-508.65C505.73,-499.6 542.38,-485.79 572,-468 588.04,-458.37 623.64,-426.61 648.47,-403.77"/>
<polygon fill="black" stroke="black" points="650.67,-406.5 655.64,-397.15 645.92,-401.36 650.67,-406.5"/>
</g>
<!-- 11 -->
<g id="node12" class="node">
<title>11</title>
<polygon fill="none" stroke="black" points="1166.25,-252 1079.75,-252 1079.75,-216 1166.25,-216 1166.25,-252"/>
<text text-anchor="middle" x="1123" y="-229.32" font-family="Times,serif" font-size="14.00">linera&#45;sdk</text>
</g>
<!-- 11&#45;&gt;0 -->
<g id="edge37" class="edge">
<title>11&#45;&gt;0</title>
<path fill="none" stroke="black" d="M1114.95,-215.57C1105.39,-196.28 1087.94,-165.13 1066,-144 1053.8,-132.25 1038.51,-122.01 1024.02,-113.75"/>
<polygon fill="black" stroke="black" points="1025.94,-110.82 1015.49,-109.08 1022.58,-116.96 1025.94,-110.82"/>
</g>
<!-- 11&#45;&gt;4 -->
<g id="edge39" class="edge">
<title>11&#45;&gt;4</title>
<path fill="none" stroke="black" d="M1079.37,-228.54C961.71,-216.52 637.51,-183.39 500.47,-169.38"/>
<polygon fill="black" stroke="black" points="501.17,-165.94 490.87,-168.4 500.46,-172.9 501.17,-165.94"/>
</g>
<!-- 12 -->
<g id="node13" class="node">
<title>12</title>
<polygon fill="none" stroke="black" points="1248.38,-180 1117.62,-180 1117.62,-144 1248.38,-144 1248.38,-180"/>
<text text-anchor="middle" x="1183" y="-157.32" font-family="Times,serif" font-size="14.00">linera&#45;ethereum</text>
</g>
<!-- 11&#45;&gt;12 -->
<g id="edge38" class="edge">
<title>11&#45;&gt;12</title>
<path fill="none" stroke="black" stroke-dasharray="1,5" d="M1137.83,-215.7C1144.81,-207.56 1153.27,-197.69 1160.97,-188.7"/>
<polygon fill="black" stroke="black" points="1163.5,-191.12 1167.35,-181.25 1158.19,-186.57 1163.5,-191.12"/>
</g>
<!-- 12&#45;&gt;0 -->
<g id="edge40" class="edge">
<title>12&#45;&gt;0</title>
<path fill="none" stroke="black" d="M1131.3,-143.52C1101.97,-133.6 1065.16,-121.15 1034.74,-110.87"/>
<polygon fill="black" stroke="black" points="1035.88,-107.55 1025.29,-107.67 1033.64,-114.19 1035.88,-107.55"/>
</g>
<!-- 13 -->
<g id="node14" class="node">
<title>13</title>
<polygon fill="none" stroke="black" points="1321.88,-252 1200.12,-252 1200.12,-216 1321.88,-216 1321.88,-252"/>
<text text-anchor="middle" x="1261" y="-229.32" font-family="Times,serif" font-size="14.00">linera&#45;explorer</text>
</g>
<!-- 13&#45;&gt;0 -->
<g id="edge41" class="edge">
<title>13&#45;&gt;0</title>
<path fill="none" stroke="black" d="M1265.94,-215.64C1270.43,-195.82 1274.03,-163.63 1257,-144 1228.67,-111.34 1108.8,-98.59 1035.08,-93.77"/>
<polygon fill="black" stroke="black" points="1035.37,-90.28 1025.17,-93.16 1034.94,-97.27 1035.37,-90.28"/>
</g>
<!-- 14 -->
<g id="node15" class="node">
<title>14</title>
<polygon fill="none" stroke="black" points="1524,-180 1304,-180 1304,-144 1524,-144 1524,-180"/>
<text text-anchor="middle" x="1414" y="-157.32" font-family="Times,serif" font-size="14.00">linera&#45;indexer&#45;graphql&#45;client</text>
</g>
<!-- 13&#45;&gt;14 -->
<g id="edge42" class="edge">
<title>13&#45;&gt;14</title>
<path fill="none" stroke="black" d="M1299.21,-215.52C1319.37,-206.29 1344.31,-194.89 1365.78,-185.06"/>
<polygon fill="black" stroke="black" points="1366.99,-188.35 1374.63,-181.01 1364.08,-181.99 1366.99,-188.35"/>
</g>
<!-- 16 -->
<g id="node17" class="node">
<title>16</title>
<polygon fill="none" stroke="black" points="1759.5,-180 1542.5,-180 1542.5,-144 1759.5,-144 1759.5,-180"/>
<text text-anchor="middle" x="1651" y="-157.32" font-family="Times,serif" font-size="14.00">linera&#45;service&#45;graphql&#45;client</text>
</g>
<!-- 13&#45;&gt;16 -->
<g id="edge43" class="edge">
<title>13&#45;&gt;16</title>
<path fill="none" stroke="black" d="M1322.34,-218.8C1326.95,-217.82 1331.55,-216.88 1336,-216 1400.15,-203.34 1472.02,-191.1 1530.9,-181.58"/>
<polygon fill="black" stroke="black" points="1531.31,-185.06 1540.62,-180.01 1530.19,-178.15 1531.31,-185.06"/>
</g>
<!-- 14&#45;&gt;0 -->
<g id="edge44" class="edge">
<title>14&#45;&gt;0</title>
<path fill="none" stroke="black" d="M1304.6,-143.52C1219.16,-129.86 1103.72,-111.41 1034.86,-100.41"/>
<polygon fill="black" stroke="black" points="1035.73,-97 1025.3,-98.88 1034.62,-103.91 1035.73,-97"/>
</g>
<!-- 15 -->
<g id="node16" class="node">
<title>15</title>
<polygon fill="none" stroke="black" points="420.38,-684 307.62,-684 307.62,-648 420.38,-648 420.38,-684"/>
<text text-anchor="middle" x="364" y="-661.33" font-family="Times,serif" font-size="14.00">linera&#45;service</text>
</g>
<!-- 15&#45;&gt;0 -->
<g id="edge45" class="edge">
<title>15&#45;&gt;0</title>
<path fill="none" stroke="black" d="M420.62,-664.07C598.49,-660.79 1138.41,-647.93 1208,-612 1253.21,-588.66 1280,-573.88 1280,-523 1280,-523 1280,-523 1280,-449 1280,-321.35 1149.01,-353.04 1071,-252 1037.57,-208.71 1040.51,-190.68 1012,-144 1006.67,-135.27 1000.52,-125.97 994.83,-117.63"/>
<polygon fill="black" stroke="black" points="997.86,-115.87 989.29,-109.63 992.1,-119.85 997.86,-115.87"/>
</g>
<!-- 15&#45;&gt;2 -->
<g id="edge46" class="edge">
<title>15&#45;&gt;2</title>
<path fill="none" stroke="black" d="M420.67,-648.27C447.64,-639.25 479.84,-626.9 507,-612 631.09,-543.93 687.99,-527.23 741,-396 746.99,-381.16 750.65,-372.76 741,-360 725.71,-339.77 663.92,-325.03 615.5,-316.3"/>
<polygon fill="black" stroke="black" points="616.4,-312.9 605.95,-314.63 615.19,-319.8 616.4,-312.9"/>
</g>
<!-- 15&#45;&gt;3 -->
<g id="edge49" class="edge">
<title>15&#45;&gt;3</title>
<path fill="none" stroke="black" d="M307.23,-660.26C272.77,-654.35 230.63,-641.19 205,-612 140.47,-538.51 172.38,-493.35 163,-396 158.25,-346.64 156.08,-323.21 191,-288 206.5,-272.37 227.19,-261.21 247.63,-253.3"/>
<polygon fill="black" stroke="black" points="248.63,-256.66 256.84,-249.97 246.25,-250.08 248.63,-256.66"/>
</g>
<!-- 15&#45;&gt;4 -->
<g id="edge53" class="edge">
<title>15&#45;&gt;4</title>
<path fill="none" stroke="black" d="M307.12,-655.02C204.75,-635.43 0,-588.12 0,-523 0,-523 0,-523 0,-305 0,-227.08 254.03,-185.48 375.17,-170.08"/>
<polygon fill="black" stroke="black" points="375.48,-173.57 384.97,-168.86 374.61,-166.62 375.48,-173.57"/>
</g>
<!-- 15&#45;&gt;5 -->
<g id="edge47" class="edge">
<title>15&#45;&gt;5</title>
<path fill="none" stroke="black" d="M344.47,-647.7C334.98,-639.28 323.39,-629.02 312.98,-619.79"/>
<polygon fill="black" stroke="black" points="315.52,-617.36 305.71,-613.35 310.87,-622.6 315.52,-617.36"/>
</g>
<!-- 15&#45;&gt;6 -->
<g id="edge48" class="edge">
<title>15&#45;&gt;6</title>
<path fill="none" stroke="black" d="M362.5,-647.55C360.62,-616.87 360.02,-551.98 383,-504 387.92,-493.73 395.63,-484.24 403.63,-476.21"/>
<polygon fill="black" stroke="black" points="405.95,-478.83 410.85,-469.44 401.16,-473.73 405.95,-478.83"/>
</g>
<!-- 15&#45;&gt;7 -->
<g id="edge51" class="edge">
<title>15&#45;&gt;7</title>
<path fill="none" stroke="black" d="M307.15,-658.61C277.42,-652.06 243.46,-638.8 225,-612 182,-549.59 208.79,-453.97 226.33,-407"/>
<polygon fill="black" stroke="black" points="229.53,-408.42 229.89,-397.83 223.01,-405.89 229.53,-408.42"/>
</g>
<!-- 15&#45;&gt;8 -->
<g id="edge52" class="edge">
<title>15&#45;&gt;8</title>
<path fill="none" stroke="black" d="M400.24,-647.67C458.17,-618.28 571.91,-553.46 639,-468 653.08,-450.06 662.39,-425.88 668.01,-407.24"/>
<polygon fill="black" stroke="black" points="671.37,-408.23 670.71,-397.65 664.63,-406.34 671.37,-408.23"/>
</g>
<!-- 15&#45;&gt;10 -->
<g id="edge50" class="edge">
<title>15&#45;&gt;10</title>
<path fill="none" stroke="black" d="M372.71,-647.59C384.85,-623.29 407.01,-578.97 421.36,-550.27"/>
<polygon fill="black" stroke="black" points="424.43,-551.97 425.77,-541.46 418.17,-548.84 424.43,-551.97"/>
</g>
<!-- 16&#45;&gt;0 -->
<g id="edge54" class="edge">
<title>16&#45;&gt;0</title>
<path fill="none" stroke="black" d="M1542.05,-145.11C1539,-144.73 1535.98,-144.36 1533,-144 1351.9,-122.35 1136.82,-103.95 1035.02,-95.67"/>
<polygon fill="black" stroke="black" points="1035.53,-92.2 1025.28,-94.89 1034.96,-99.18 1035.53,-92.2"/>
</g>
<!-- 17 -->
<g id="node18" class="node">
<title>17</title>
<polygon fill="none" stroke="black" points="1284.12,-684 1103.88,-684 1103.88,-648 1284.12,-648 1284.12,-684"/>
<text text-anchor="middle" x="1194" y="-661.33" font-family="Times,serif" font-size="14.00">linera&#45;indexer&#45;example</text>
</g>
<!-- 18 -->
<g id="node19" class="node">
<title>18</title>
<polygon fill="none" stroke="black" points="1213.88,-540 1098.12,-540 1098.12,-504 1213.88,-504 1213.88,-540"/>
<text text-anchor="middle" x="1156" y="-517.33" font-family="Times,serif" font-size="14.00">linera&#45;indexer</text>
</g>
<!-- 17&#45;&gt;18 -->
<g id="edge55" class="edge">
<title>17&#45;&gt;18</title>
<path fill="none" stroke="black" d="M1202.02,-647.64C1209.33,-629.23 1217.64,-599.6 1208,-576 1203.73,-565.55 1196.3,-556.05 1188.36,-548.07"/>
<polygon fill="black" stroke="black" points="1190.84,-545.59 1181.13,-541.35 1186.08,-550.72 1190.84,-545.59"/>
</g>
<!-- 19 -->
<g id="node20" class="node">
<title>19</title>
<polygon fill="none" stroke="black" points="1199.38,-612 1026.62,-612 1026.62,-576 1199.38,-576 1199.38,-612"/>
<text text-anchor="middle" x="1113" y="-589.33" font-family="Times,serif" font-size="14.00">linera&#45;indexer&#45;plugins</text>
</g>
<!-- 17&#45;&gt;19 -->
<g id="edge56" class="edge">
<title>17&#45;&gt;19</title>
<path fill="none" stroke="black" d="M1173.98,-647.7C1164.24,-639.28 1152.36,-629.02 1141.69,-619.79"/>
<polygon fill="black" stroke="black" points="1144.07,-617.23 1134.22,-613.34 1139.5,-622.52 1144.07,-617.23"/>
</g>
<!-- 18&#45;&gt;0 -->
<g id="edge57" class="edge">
<title>18&#45;&gt;0</title>
<path fill="none" stroke="black" d="M1202.7,-503.59C1360.82,-443.42 1861.23,-242.6 1769,-144 1719.16,-90.72 1210.41,-89.3 1035.04,-90.42"/>
<polygon fill="black" stroke="black" points="1035.22,-86.92 1025.25,-90.49 1035.27,-93.92 1035.22,-86.92"/>
</g>
<!-- 18&#45;&gt;2 -->
<g id="edge58" class="edge">
<title>18&#45;&gt;2</title>
<path fill="none" stroke="black" d="M1097.78,-515.21C1027.84,-507.34 915.6,-491.48 881,-468 833.87,-436.01 858.93,-392.28 812,-360 780.7,-338.48 681.36,-322.57 615.48,-314.05"/>
<polygon fill="black" stroke="black" points="616.27,-310.62 605.9,-312.84 615.39,-317.57 616.27,-310.62"/>
</g>
<!-- 18&#45;&gt;4 -->
<g id="edge62" class="edge">
<title>18&#45;&gt;4</title>
<path fill="none" stroke="black" d="M1149.68,-503.72C1137.46,-472.16 1108.07,-404.39 1066,-360 983.55,-273.01 950.69,-256.82 838,-216 724.06,-174.73 581.46,-165.03 500.95,-163.09"/>
<polygon fill="black" stroke="black" points="501.12,-159.59 491.05,-162.88 500.98,-166.59 501.12,-159.59"/>
</g>
<!-- 18&#45;&gt;6 -->
<g id="edge59" class="edge">
<title>18&#45;&gt;6</title>
<path fill="none" stroke="black" d="M1097.91,-515.36C962.62,-502.23 627.76,-469.71 492.78,-456.61"/>
<polygon fill="black" stroke="black" points="493.29,-453.14 483,-455.66 492.61,-460.11 493.29,-453.14"/>
</g>
<!-- 18&#45;&gt;8 -->
<g id="edge61" class="edge">
<title>18&#45;&gt;8</title>
<path fill="none" stroke="black" d="M1097.66,-516.29C1034.74,-510 932.26,-496.18 848,-468 798.58,-451.47 745.9,-422.54 711.83,-402.16"/>
<polygon fill="black" stroke="black" points="713.97,-399.37 703.61,-397.18 710.35,-405.35 713.97,-399.37"/>
</g>
<!-- 18&#45;&gt;16 -->
<g id="edge60" class="edge">
<title>18&#45;&gt;16</title>
<path fill="none" stroke="black" d="M1154.89,-503.63C1153.79,-471.64 1155.89,-402.77 1190,-360 1241,-296.06 1465.57,-219.83 1581.38,-183.81"/>
<polygon fill="black" stroke="black" points="1582.28,-187.2 1590.79,-180.9 1580.21,-180.51 1582.28,-187.2"/>
</g>
<!-- 19&#45;&gt;0 -->
<g id="edge63" class="edge">
<title>19&#45;&gt;0</title>
<path fill="none" stroke="black" d="M1178.68,-575.56C1196.06,-567.63 1212.79,-556.24 1223,-540 1231.51,-526.45 1227.92,-519.22 1223,-504 1180.25,-371.8 1104.85,-373.8 1038,-252 1013.63,-207.61 994.41,-151.63 984.16,-118.73"/>
<polygon fill="black" stroke="black" points="987.63,-118.1 981.36,-109.56 980.94,-120.15 987.63,-118.1"/>
</g>
<!-- 19&#45;&gt;2 -->
<g id="edge64" class="edge">
<title>19&#45;&gt;2</title>
<path fill="none" stroke="black" d="M1026.31,-588.55C947.85,-582.67 840.1,-569.37 810,-540 751.62,-483.01 830.55,-418.8 774,-360 752.36,-337.5 672.82,-322.51 615.6,-314.38"/>
<polygon fill="black" stroke="black" points="616.36,-310.95 605.97,-313.05 615.4,-317.89 616.36,-310.95"/>
</g>
<!-- 19&#45;&gt;3 -->
<g id="edge65" class="edge">
<title>19&#45;&gt;3</title>
<path fill="none" stroke="black" d="M1068.14,-575.57C1018.74,-554.93 938.68,-517.06 881,-468 834.89,-428.78 846.44,-396.32 798,-360 727.41,-307.07 697.88,-312.07 613,-288 542.23,-267.94 459.49,-253.66 400.72,-245.02"/>
<polygon fill="black" stroke="black" points="401.56,-241.6 391.16,-243.63 400.55,-248.53 401.56,-241.6"/>
</g>
<!-- 19&#45;&gt;4 -->
<g id="edge67" class="edge">
<title>19&#45;&gt;4</title>
<path fill="none" stroke="black" d="M1103.82,-575.78C1098.76,-565.62 1092.76,-552.37 1089,-540 1074.84,-493.44 1096.53,-473.43 1071,-432 1025.4,-358.02 826.93,-244.98 745,-216 663.52,-187.17 564.13,-173.68 500.95,-167.62"/>
<polygon fill="black" stroke="black" points="501.37,-164.14 491.09,-166.71 500.73,-171.11 501.37,-164.14"/>
</g>
<!-- 19&#45;&gt;18 -->
<g id="edge66" class="edge">
<title>19&#45;&gt;18</title>
<path fill="none" stroke="black" d="M1123.63,-575.7C1128.42,-567.9 1134.19,-558.51 1139.52,-549.83"/>
<polygon fill="black" stroke="black" points="1142.45,-551.75 1144.7,-541.39 1136.48,-548.08 1142.45,-551.75"/>
</g>
<!-- 20 -->
<g id="node21" class="node">
<title>20</title>
<polygon fill="none" stroke="black" points="1497.62,-684 1302.38,-684 1302.38,-648 1497.62,-648 1497.62,-684"/>
<text text-anchor="middle" x="1400" y="-661.33" font-family="Times,serif" font-size="14.00">linera&#45;witty&#45;test&#45;modules</text>
</g>
</g>
</svg>
