<svg width="1956" height="320" viewBox="0 0 1956 320" fill="none" xmlns="http://www.w3.org/2000/svg">
<path d="M1918 15H38C26.9543 15 18 23.9543 18 35V279C18 290.046 26.9543 299 38 299H1918C1929.05 299 1938 290.046 1938 279V35C1938 23.9543 1929.05 15 1918 15Z" fill="#70D4D3"/>
<path d="M1666.84 130.348H1643.24C1642.29 130.348 1641.36 130.667 1640.61 131.26L1632.01 138.051V130.348H1623.52V182.954H1632.01V148.857L1644.72 138.827H1662.61V182.954H1671.1V134.591C1671.1 132.249 1669.19 130.348 1666.85 130.348H1666.84Z" fill="#0E2630"/>
<path d="M1610.8 130.348H1602.31V182.962H1610.8V130.348Z" fill="#0E2630"/>
<path d="M1787.42 130.348H1763.82C1762.87 130.348 1761.94 130.667 1761.19 131.26L1752.59 138.051V130.348H1744.1V182.954H1752.59V148.856L1765.29 138.826H1783.18V147.465H1791.67V134.583C1791.67 132.241 1789.77 130.34 1787.42 130.34V130.348Z" fill="#0E2630"/>
<path d="M1727.14 130.348H1688.06C1685.72 130.348 1683.82 132.249 1683.82 134.591V178.718C1683.82 181.061 1685.72 182.962 1688.06 182.962H1731.38V174.475H1692.3V160.902H1727.14C1729.48 160.902 1731.38 159.001 1731.38 156.659V134.599C1731.38 132.257 1729.48 130.355 1727.14 130.355V130.348ZM1722.9 152.408H1692.3V138.834H1722.9V152.408Z" fill="#0E2630"/>
<path d="M1851.96 134.591C1851.96 132.249 1850.06 130.348 1847.72 130.348H1808.64C1806.3 130.348 1804.4 132.249 1804.4 134.591V147.427H1812.88V138.834H1843.48V152.408H1808.64C1806.3 152.408 1804.4 154.309 1804.4 156.651V178.711C1804.4 181.053 1806.3 182.954 1808.64 182.954H1831.42C1832.38 182.954 1833.31 182.627 1834.06 182.034L1843.48 174.551V182.954H1851.96V134.591ZM1829.95 174.475H1812.88V160.902H1843.48V163.723L1829.95 174.475Z" fill="#0E2630"/>
<path d="M1589.59 174.467H1550.51V130.348H1542.02V182.977L1589.59 182.954V174.467Z" fill="#0E2630"/>
<path d="M1463.54 102C1433.42 102 1409 126.417 1409 156.538C1409 186.658 1433.42 211.075 1463.54 211.075C1493.66 211.075 1518.08 186.658 1518.08 156.538C1518.08 126.417 1493.66 102 1463.54 102ZM1448.19 129.953H1478.89L1483.11 137.268H1443.96L1448.18 129.953H1448.19ZM1479.17 156.538L1471.37 170.05H1455.71L1447.91 156.538L1455.73 143.002H1471.36L1479.18 156.538H1479.17ZM1432.15 179.845L1418.7 156.538L1432.16 133.215L1435.79 139.496L1425.95 156.538L1435.78 173.563L1432.15 179.845ZM1432.84 156.538L1440.66 143.002H1449.1L1441.29 156.538L1449.09 170.05H1440.64L1432.84 156.538ZM1478.88 183.122H1448.19L1443.96 175.784H1452.4L1452.42 175.807H1474.67L1474.69 175.784H1483.13L1478.9 183.122H1478.88ZM1477.98 170.05L1485.78 156.538L1477.96 143.002H1486.41L1494.23 156.538L1486.43 170.05H1477.98ZM1494.91 179.845L1491.29 173.563L1501.12 156.538L1491.28 139.496L1494.91 133.215L1508.37 156.538L1494.91 179.845Z" fill="#0E2630"/>
</svg>
